<?xml version="1.0" standalone="no"?>
<!DOCTYPE svg PUBLIC "-//W3C//DTD SVG 20010904//EN"
 "http://www.w3.org/TR/2001/REC-SVG-20010904/DTD/svg10.dtd">
<svg version="1.0" xmlns="http://www.w3.org/2000/svg"
 width="732.000000pt" height="732.000000pt" viewBox="0 0 732.000000 732.000000"
 preserveAspectRatio="xMidYMid meet">
<metadata>
Created by potrace 1.14, written by Peter Selinger 2001-2017
</metadata>
<g transform="translate(0.000000,732.000000) scale(0.100000,-0.100000)"
fill="#000000" stroke="none">
<path d="M2080 7249 c-69 -39 -136 -78 -150 -87 -14 -9 -27 -17 -30 -17 -3 0
-16 -8 -30 -17 -21 -13 -271 -158 -390 -225 -19 -11 -59 -34 -88 -52 -29 -17
-57 -31 -62 -31 -6 0 -10 -4 -10 -10 0 -5 -4 -10 -9 -10 -5 0 -49 -23 -98 -51
-48 -28 -104 -61 -123 -71 -19 -11 -70 -41 -112 -65 l-78 -45 0 -2492 0 -2492
93 -53 c50 -30 117 -68 147 -86 30 -18 75 -44 100 -58 25 -14 112 -64 193
-111 82 -47 152 -86 158 -86 5 0 9 -4 9 -10 0 -5 4 -10 10 -10 5 0 47 -22 92
-49 115 -67 413 -239 468 -269 25 -14 56 -33 70 -42 14 -9 30 -19 35 -21 26
-10 150 -84 153 -91 2 -4 7 -8 12 -8 4 0 64 -32 132 -71 67 -39 141 -82 163
-94 22 -13 123 -71 225 -131 102 -59 203 -117 225 -128 37 -20 93 -53 140 -84
11 -6 26 -15 34 -19 8 -4 75 -42 149 -85 l135 -78 141 81 c77 45 182 105 231
132 50 28 92 55 93 59 2 4 8 8 13 8 5 0 54 27 110 60 55 33 102 60 104 60 3 0
96 54 320 185 50 29 106 62 125 73 37 21 276 158 328 189 17 10 97 56 178 103
81 47 168 97 193 112 25 15 53 31 61 35 8 3 33 18 55 31 22 14 65 39 95 55 30
17 57 33 60 36 3 3 19 13 35 22 28 14 442 252 550 316 l50 29 0 2493 0 2492
-50 28 c-66 37 -444 255 -487 281 -18 11 -42 24 -53 30 -11 5 -38 21 -60 34
-22 14 -62 37 -90 51 -27 15 -57 33 -66 41 -8 8 -18 14 -21 14 -4 0 -99 54
-213 120 -114 66 -210 120 -215 120 -5 0 -10 6 -12 13 -4 9 -306 13 -1459 15
l-1454 2 -125 -71z m2969 -292 c31 -17 64 -37 74 -45 9 -8 17 -12 17 -7 0 4 6
3 13 -3 12 -10 156 -95 278 -164 13 -7 26 -15 29 -18 3 -3 19 -12 35 -21 79
-42 100 -54 105 -59 3 -3 19 -12 35 -21 17 -8 91 -51 165 -94 74 -43 155 -89
180 -103 25 -14 53 -30 63 -36 16 -10 17 -131 17 -2312 l0 -2300 -37 -21 c-86
-46 -139 -77 -164 -94 -15 -10 -37 -23 -50 -29 -13 -6 -37 -19 -54 -30 -16
-11 -43 -26 -60 -35 -16 -8 -43 -24 -60 -34 -16 -11 -52 -32 -79 -46 -79 -43
-91 -50 -96 -55 -5 -5 -22 -15 -99 -58 -25 -13 -57 -32 -71 -41 -14 -10 -46
-28 -72 -42 -27 -13 -48 -27 -48 -31 0 -5 -5 -8 -10 -8 -11 0 -653 -368 -702
-402 -16 -11 -28 -16 -28 -11 0 4 -4 3 -8 -3 -4 -6 -32 -24 -62 -41 -30 -17
-95 -54 -145 -83 -49 -29 -106 -62 -125 -72 -36 -21 -182 -105 -212 -123 -25
-15 -136 -78 -189 -108 l-47 -27 -231 135 c-128 74 -236 135 -241 135 -6 0
-10 5 -10 10 0 6 -4 10 -10 10 -5 0 -33 14 -62 31 -69 41 -130 76 -243 140
-33 18 -62 37 -63 41 -2 4 -12 8 -23 8 -10 0 -19 4 -19 8 0 5 -15 16 -32 25
-18 9 -60 33 -93 52 -33 20 -75 43 -92 52 -18 9 -33 20 -33 25 0 4 -8 8 -19 8
-10 0 -24 7 -31 15 -7 8 -16 15 -20 15 -4 0 -38 18 -74 40 -36 22 -70 40 -76
40 -5 0 -10 5 -10 10 0 6 -4 10 -9 10 -8 0 -100 51 -241 135 -30 18 -75 44
-100 57 -25 14 -84 48 -132 77 -48 28 -91 51 -97 51 -6 0 -11 3 -11 8 0 4 -28
22 -62 40 -35 18 -83 46 -108 61 -25 15 -70 41 -100 58 -30 17 -81 45 -112 64
l-58 33 0 51 c-1 72 -1 4406 0 4487 l0 66 68 39 c37 21 74 41 82 46 8 4 38 21
65 38 28 16 58 33 68 36 9 3 17 9 17 14 0 5 5 9 11 9 6 0 44 19 83 43 39 24
78 46 86 50 8 4 22 11 30 17 8 6 136 80 284 164 l270 154 1350 0 1350 0 55
-31z"/>
<path d="M2609 6643 c0 -10 0 -134 0 -276 0 -198 3 -260 13 -270 7 -7 63 -54
123 -106 150 -127 206 -174 219 -186 6 -5 41 -35 76 -65 36 -30 68 -58 71 -62
3 -5 5 -79 4 -166 l0 -157 -493 -2 c-270 -1 -512 -2 -537 -3 -40 0 -45 -3 -44
-22 0 -13 0 -49 -1 -81 0 -32 2 -62 5 -67 3 -6 3 -10 -2 -10 -4 0 -7 -44 -5
-97 1 -54 2 -116 2 -138 -1 -36 -1 -57 2 -93 1 -7 96 -67 212 -133 116 -67
226 -130 244 -140 17 -11 47 -27 65 -38 17 -10 97 -56 177 -102 l145 -84 115
-5 115 -5 0 -1047 c0 -577 -1 -1048 -3 -1048 -2 0 -31 16 -65 36 -34 20 -81
47 -104 60 -23 13 -92 53 -153 89 -61 36 -115 65 -121 65 -5 0 -9 3 -9 8 0 4
-22 17 -48 30 -92 46 -83 -25 -83 635 l0 586 -72 41 c-40 22 -79 45 -87 50
-66 41 -224 130 -231 130 -5 0 -9 5 -9 11 0 5 -4 8 -9 4 -5 -3 -12 -1 -16 5
-3 6 -25 20 -48 31 -23 12 -44 25 -47 28 -3 4 -26 18 -52 31 -26 14 -96 54
-155 89 -59 35 -128 75 -153 89 -25 14 -54 31 -65 38 -11 8 -22 14 -25 14 -3
0 -5 -524 -5 -1165 0 -1021 2 -1166 15 -1178 18 -17 299 -177 310 -177 5 0 10
-4 12 -8 2 -5 28 -22 58 -39 70 -38 127 -71 165 -94 17 -10 41 -24 55 -30 13
-5 27 -13 30 -17 3 -4 21 -15 40 -26 58 -31 119 -66 258 -148 73 -43 134 -78
136 -78 2 0 50 -27 105 -60 56 -33 106 -60 111 -60 6 0 10 -4 10 -10 0 -5 4
-10 10 -10 8 0 120 -62 180 -100 8 -5 38 -21 65 -36 28 -15 61 -35 74 -45 13
-11 27 -19 31 -19 4 0 69 -36 143 -80 75 -44 140 -80 146 -80 6 0 11 -3 11 -7
0 -5 10 -13 23 -18 12 -6 40 -21 63 -34 l40 -22 149 85 c81 47 149 86 151 86
1 0 49 28 106 61 103 62 139 83 211 123 21 11 46 26 55 31 9 6 91 52 182 104
91 51 181 103 200 115 35 23 262 153 310 178 14 7 40 23 58 36 17 13 32 21 32
18 0 -4 17 5 38 18 38 25 458 268 545 315 36 20 47 31 48 51 0 32 0 2256 0
2292 l-1 26 -87 -52 c-49 -29 -95 -55 -103 -59 -8 -4 -31 -17 -50 -28 -32 -20
-95 -56 -145 -83 -11 -6 -22 -13 -25 -16 -3 -3 -16 -11 -30 -19 -324 -186
-437 -252 -447 -261 -7 -5 -15 -10 -19 -10 -3 0 -19 -9 -35 -20 -26 -19 -29
-26 -29 -88 0 -37 -1 -74 -1 -82 -1 -8 -1 -42 0 -75 0 -33 0 -67 0 -75 0 -8 0
-33 0 -55 1 -22 0 -47 0 -55 -1 -8 -1 -37 0 -65 0 -27 0 -57 0 -65 -1 -16 0
-84 2 -140 1 -19 1 -42 0 -50 0 -8 0 -49 0 -90 0 -41 0 -82 0 -90 -1 -8 -1
-33 0 -55 0 -22 0 -47 0 -55 -1 -25 -1 -89 0 -97 5 -31 -3 -56 -21 -60 -11 -3
-20 -9 -20 -14 0 -5 -4 -9 -9 -9 -5 0 -31 -13 -58 -29 -124 -75 -466 -271
-474 -271 -4 0 -8 472 -8 1048 l1 1048 106 -1 c100 -1 110 1 157 28 28 15 58
30 68 33 9 4 17 10 17 15 0 5 5 9 11 9 6 0 48 23 95 50 47 28 87 50 91 50 4 0
14 6 22 14 9 7 43 28 76 46 80 44 115 64 285 162 l145 83 2 261 2 261 -522 1
c-287 1 -530 1 -539 2 -15 0 -16 18 -17 165 0 91 4 165 8 165 5 0 19 10 32 23
13 13 53 47 89 77 35 30 70 60 76 65 6 6 35 30 64 55 30 25 61 52 69 60 9 8
30 25 46 38 17 13 52 42 78 65 l48 41 0 105 c0 58 0 115 -1 126 0 11 0 34 0
51 0 18 0 36 1 40 1 5 1 60 0 121 l-1 113 -1035 0 c-981 0 -1035 -1 -1036 -17z"/>
</g>
</svg>
